<mxfile host="app.diagrams.net" agent="Mozilla/5.0 (Windows NT 10.0; Win64; x64) AppleWebKit/537.36 (KHTML, like Gecko) Chrome/136.0.0.0 Safari/537.36 Edg/136.0.0.0" version="27.0.3">
  <diagram name="Trang-1" id="-5lHuszuLCNhuIlT9zmT">
    <mxGraphModel dx="1227" dy="606" grid="1" gridSize="10" guides="1" tooltips="1" connect="1" arrows="1" fold="1" page="1" pageScale="1" pageWidth="827" pageHeight="1169" math="0" shadow="0">
      <root>
        <mxCell id="0" />
        <mxCell id="1" parent="0" />
        <mxCell id="8LrxYFFrYrZIzESZ5k-a-4" style="edgeStyle=orthogonalEdgeStyle;rounded=0;orthogonalLoop=1;jettySize=auto;html=1;" edge="1" parent="1" source="8LrxYFFrYrZIzESZ5k-a-1" target="8LrxYFFrYrZIzESZ5k-a-2">
          <mxGeometry relative="1" as="geometry">
            <Array as="points">
              <mxPoint x="170" y="240" />
              <mxPoint x="170" y="240" />
            </Array>
          </mxGeometry>
        </mxCell>
        <mxCell id="8LrxYFFrYrZIzESZ5k-a-1" value="Actors" style="shape=umlActor;verticalLabelPosition=bottom;verticalAlign=top;html=1;outlineConnect=0;" vertex="1" parent="1">
          <mxGeometry x="90" y="180" width="50" height="90" as="geometry" />
        </mxCell>
        <mxCell id="8LrxYFFrYrZIzESZ5k-a-8" style="edgeStyle=orthogonalEdgeStyle;rounded=0;orthogonalLoop=1;jettySize=auto;html=1;entryX=0.5;entryY=0;entryDx=0;entryDy=0;" edge="1" parent="1" source="8LrxYFFrYrZIzESZ5k-a-9" target="8LrxYFFrYrZIzESZ5k-a-3">
          <mxGeometry relative="1" as="geometry">
            <Array as="points">
              <mxPoint x="640" y="240" />
            </Array>
          </mxGeometry>
        </mxCell>
        <mxCell id="8LrxYFFrYrZIzESZ5k-a-2" value="System" style="ellipse;whiteSpace=wrap;html=1;" vertex="1" parent="1">
          <mxGeometry x="354" y="200" width="120" height="80" as="geometry" />
        </mxCell>
        <mxCell id="8LrxYFFrYrZIzESZ5k-a-14" style="edgeStyle=orthogonalEdgeStyle;rounded=0;orthogonalLoop=1;jettySize=auto;html=1;entryX=0.5;entryY=1;entryDx=0;entryDy=0;" edge="1" parent="1" source="8LrxYFFrYrZIzESZ5k-a-3" target="8LrxYFFrYrZIzESZ5k-a-2">
          <mxGeometry relative="1" as="geometry">
            <Array as="points">
              <mxPoint x="414" y="400" />
            </Array>
          </mxGeometry>
        </mxCell>
        <mxCell id="8LrxYFFrYrZIzESZ5k-a-3" value="Database" style="shape=cylinder;whiteSpace=wrap;html=1;" vertex="1" parent="1">
          <mxGeometry x="590" y="340" width="100" height="110" as="geometry" />
        </mxCell>
        <mxCell id="8LrxYFFrYrZIzESZ5k-a-5" value="1" style="text;html=1;align=center;verticalAlign=middle;resizable=0;points=[];autosize=1;strokeColor=none;fillColor=none;" vertex="1" parent="1">
          <mxGeometry x="140" y="218" width="30" height="30" as="geometry" />
        </mxCell>
        <mxCell id="8LrxYFFrYrZIzESZ5k-a-6" value="Yêu cầu thêm xóa sửa" style="text;html=1;align=center;verticalAlign=middle;resizable=0;points=[];autosize=1;strokeColor=none;fillColor=none;" vertex="1" parent="1">
          <mxGeometry x="170" y="210" width="140" height="30" as="geometry" />
        </mxCell>
        <mxCell id="8LrxYFFrYrZIzESZ5k-a-7" value="" style="endArrow=classic;html=1;rounded=0;entryX=0.571;entryY=0;entryDx=0;entryDy=0;entryPerimeter=0;" edge="1" parent="1" target="8LrxYFFrYrZIzESZ5k-a-6">
          <mxGeometry width="50" height="50" relative="1" as="geometry">
            <mxPoint x="200" y="210" as="sourcePoint" />
            <mxPoint x="250" y="160" as="targetPoint" />
          </mxGeometry>
        </mxCell>
        <mxCell id="8LrxYFFrYrZIzESZ5k-a-10" value="" style="edgeStyle=orthogonalEdgeStyle;rounded=0;orthogonalLoop=1;jettySize=auto;html=1;entryX=0.5;entryY=0;entryDx=0;entryDy=0;" edge="1" parent="1" source="8LrxYFFrYrZIzESZ5k-a-2" target="8LrxYFFrYrZIzESZ5k-a-9">
          <mxGeometry relative="1" as="geometry">
            <mxPoint x="474" y="240" as="sourcePoint" />
            <mxPoint x="700" y="185" as="targetPoint" />
          </mxGeometry>
        </mxCell>
        <mxCell id="8LrxYFFrYrZIzESZ5k-a-9" value="2" style="text;html=1;align=center;verticalAlign=middle;resizable=0;points=[];autosize=1;strokeColor=none;fillColor=none;" vertex="1" parent="1">
          <mxGeometry x="625" y="210" width="30" height="30" as="geometry" />
        </mxCell>
        <mxCell id="8LrxYFFrYrZIzESZ5k-a-11" value="Cập nhật data" style="text;html=1;align=center;verticalAlign=middle;resizable=0;points=[];autosize=1;strokeColor=none;fillColor=none;" vertex="1" parent="1">
          <mxGeometry x="650" y="210" width="100" height="30" as="geometry" />
        </mxCell>
        <mxCell id="8LrxYFFrYrZIzESZ5k-a-13" value="" style="endArrow=classic;html=1;rounded=0;" edge="1" parent="1">
          <mxGeometry width="50" height="50" relative="1" as="geometry">
            <mxPoint x="650" y="280" as="sourcePoint" />
            <mxPoint x="650" y="320" as="targetPoint" />
          </mxGeometry>
        </mxCell>
        <mxCell id="8LrxYFFrYrZIzESZ5k-a-15" value="3" style="text;html=1;align=center;verticalAlign=middle;resizable=0;points=[];autosize=1;strokeColor=none;fillColor=none;" vertex="1" parent="1">
          <mxGeometry x="565" y="378" width="30" height="30" as="geometry" />
        </mxCell>
        <mxCell id="8LrxYFFrYrZIzESZ5k-a-16" value="" style="endArrow=classic;html=1;rounded=0;" edge="1" parent="1">
          <mxGeometry width="50" height="50" relative="1" as="geometry">
            <mxPoint x="514" y="378" as="sourcePoint" />
            <mxPoint x="474" y="378" as="targetPoint" />
          </mxGeometry>
        </mxCell>
        <mxCell id="8LrxYFFrYrZIzESZ5k-a-17" value="Xác nhận cập nhật" style="text;html=1;align=center;verticalAlign=middle;resizable=0;points=[];autosize=1;strokeColor=none;fillColor=none;" vertex="1" parent="1">
          <mxGeometry x="430" y="378" width="120" height="30" as="geometry" />
        </mxCell>
        <mxCell id="8LrxYFFrYrZIzESZ5k-a-18" value="" style="endArrow=classic;html=1;rounded=0;" edge="1" parent="1">
          <mxGeometry width="50" height="50" relative="1" as="geometry">
            <mxPoint x="400" y="360" as="sourcePoint" />
            <mxPoint x="400" y="320" as="targetPoint" />
          </mxGeometry>
        </mxCell>
        <mxCell id="8LrxYFFrYrZIzESZ5k-a-19" style="edgeStyle=orthogonalEdgeStyle;rounded=0;orthogonalLoop=1;jettySize=auto;html=1;entryX=0.5;entryY=0;entryDx=0;entryDy=0;entryPerimeter=0;" edge="1" parent="1" source="8LrxYFFrYrZIzESZ5k-a-2" target="8LrxYFFrYrZIzESZ5k-a-1">
          <mxGeometry relative="1" as="geometry">
            <Array as="points">
              <mxPoint x="414" y="160" />
              <mxPoint x="115" y="160" />
            </Array>
          </mxGeometry>
        </mxCell>
        <mxCell id="8LrxYFFrYrZIzESZ5k-a-20" value="4" style="edgeLabel;html=1;align=center;verticalAlign=middle;resizable=0;points=[];" vertex="1" connectable="0" parent="8LrxYFFrYrZIzESZ5k-a-19">
          <mxGeometry x="0.0462" relative="1" as="geometry">
            <mxPoint x="-56" y="-10" as="offset" />
          </mxGeometry>
        </mxCell>
        <mxCell id="8LrxYFFrYrZIzESZ5k-a-21" value="Thông báo kết quả" style="text;html=1;align=center;verticalAlign=middle;resizable=0;points=[];autosize=1;strokeColor=none;fillColor=none;" vertex="1" parent="1">
          <mxGeometry x="234" y="130" width="120" height="30" as="geometry" />
        </mxCell>
        <mxCell id="8LrxYFFrYrZIzESZ5k-a-22" value="" style="endArrow=classic;html=1;rounded=0;entryX=0.05;entryY=0;entryDx=0;entryDy=0;entryPerimeter=0;" edge="1" parent="1" target="8LrxYFFrYrZIzESZ5k-a-21">
          <mxGeometry width="50" height="50" relative="1" as="geometry">
            <mxPoint x="290" y="130" as="sourcePoint" />
            <mxPoint x="340" y="80" as="targetPoint" />
          </mxGeometry>
        </mxCell>
      </root>
    </mxGraphModel>
  </diagram>
</mxfile>
